<?xml version="1.0"?><svg width="640" height="480" xmlns="http://www.w3.org/2000/svg">
 <linearGradient gradientTransform="matrix(0.9451 0.3268 0.3268 -0.9451 -196.2289 1147.5116)" y2="577.600877" x2="-126.110199" y1="577.600877" x1="-126.110199" id="SVGID_1_">
  <stop stop-color="#E6E6E6" offset="0"/>
  <stop stop-color="#F2F2F2" offset="1"/>
 </linearGradient>
 <g>
  <title>Layer 1</title>
  <path d="m561.791016,495.246002c1.531982,-3.789001 2.971008,-7.622009 4.317993,-11.522003c-1.346985,3.899994 -2.786011,7.733002 -4.317993,11.522003z" fill="#F2F2F2"/>
  <path d="m561.330017,496.312988c0.14502,-0.358002 0.315002,-0.71701 0.460999,-1.066986c-0.14502,0.350983 -0.31604,0.708984 -0.460999,1.066986z" fill="url(#SVGID_1_)"/>
  <g transform="rotate(133.80233764648438 230.25627136230472,269.5018310546875) ">
   <g>
    <path d="m99.163765,471.469482c78.25602,27.105957 155.501015,9.064331 172.537987,-40.291748c12.636993,-36.60611 -11.433014,-80.154724 -56.644974,-111.279907c7.839996,-13.365143 14.492981,-27.686981 19.745972,-42.898438c17.113007,-49.594559 16.857025,-100.972321 2.519012,-147.5354c97.374985,42.639008 153.512009,144.721313 140.106979,248.066895c5.910034,-9.944946 11.125977,-20.452942 15.637024,-31.449768c-47.380005,115.855164 -177.432999,175.778381 -297.000023,134.357574c-28.768974,-9.960999 -54.352978,-24.959076 -76.216,-43.599731c4.609009,-0.188324 9.205002,-0.504944 13.771011,-0.957703c18.014008,14.433014 40.27,26.83139 65.543011,35.588226z" fill="#d3c223"/>
    <path d="m393.526764,345.011139c-0.145996,0.351624 -0.315979,0.710266 -0.460999,1.068939c-4.510986,10.996857 -9.72699,21.504822 -15.637024,31.449768c13.404053,-103.344574 -42.731964,-205.427902 -140.106949,-248.066864c-13.209015,-42.890442 -38.384003,-81.638412 -73.016022,-111.185747c28.679016,-1.133059 58.053009,2.899231 86.821014,12.860209c123.847977,42.89946 189.535965,178.24984 146.717972,302.329842c-1.346985,3.908081 -2.786011,7.748016 -4.317993,11.543854z" fill="#d3c223"/>
    <path d="m393.526764,345.011139c-0.145996,0.351624 -0.315979,0.710266 -0.460999,1.068939c-4.510986,10.996857 -9.72699,21.504822 -15.637024,31.449768c13.404053,-103.344574 -42.731964,-205.427902 -140.106949,-248.066864c-13.209015,-42.890442 -38.384003,-81.638412 -73.016022,-111.185747c28.679016,-1.133059 58.053009,2.899231 86.821014,12.860209c123.847977,42.89946 189.535965,178.24984 146.717972,302.329842c-1.346985,3.908081 -2.786011,7.748016 -4.317993,11.543854z" fill="#d3c223"/>
    <path d="m271.701752,431.177734c-17.035995,49.35614 -94.280991,67.396729 -172.537987,40.291748c-25.272995,-8.755798 -47.528988,-21.154175 -65.542995,-35.588226c74.381008,-7.319244 142.608982,-49.722778 181.436008,-115.982422c45.21196,31.124176 69.281967,74.672791 56.644974,111.2789z" fill="#d3c223"/>
    <defs fill="#d3c223">
     <filter fill="#d3c223" height="163.883" width="241.427" y="470.178" x="201.885" filterUnits="userSpaceOnUse" id="Adobe_OpacityMaskFilter"/>
    </defs>
    <mask fill="#d3c223" transform="translate(4,24) translate(-0.26424047350883484,-0.8268160820007324) translate(-172,-4) translate(0,-170) translate(16.113983154296875,-6.0290069580078125) scale(1,1.001808762550354) translate(-16.113983154296875,6.0290069580078125) " id="SVGID_3_" height="163.883" width="241.427" y="470.178" x="201.885" maskUnits="userSpaceOnUse">
     <g filter="url(#Adobe_OpacityMaskFilter)">
      <defs fill="#d3c223">
       <filter fill="#d3c223" height="163.883" width="241.427" y="470.178" x="201.885" filterUnits="userSpaceOnUse" id="Adobe_OpacityMaskFilter_1_"/>
      </defs>
      <mask fill="#d3c223" id="SVGID_3_" height="163.883" width="241.427" y="470.178" x="201.885" maskUnits="userSpaceOnUse">
       <g filter="url(#Adobe_OpacityMaskFilter_1_)"/>
      </mask>
      <path d="m439.966003,581.257019c-17.036011,49.267029 -94.281006,67.275024 -172.537994,40.218994c-25.272995,-8.73999 -47.528992,-21.115967 -65.542999,-35.523987c74.381012,-7.30603 142.608978,-49.632996 181.436005,-115.77301c45.211975,31.067993 69.281982,74.537964 56.644989,111.078003z" fill="#d3c223" mask="url(#SVGID_3_)"/>
     </g>
    </mask>
    <path d="m271.701752,431.177734c-17.035995,49.35614 -94.280991,67.396729 -172.537987,40.291748c-25.272995,-8.755798 -47.528988,-21.154175 -65.542995,-35.588226c74.381008,-7.319244 142.608982,-49.722778 181.436008,-115.982422c45.21196,31.124176 69.281967,74.672791 56.644974,111.2789z" fill="#d3c223"/>
   </g>
   <path d="m393.526764,345.011139c-0.145996,0.351624 -0.315979,0.710266 -0.460999,1.068939c-1.353027,3.299957 -2.791016,6.532806 -4.268005,9.739594c-0.388977,0.846527 -0.797974,1.685059 -1.198975,2.530579c-1.212036,2.548584 -2.467041,5.071136 -3.76001,7.558655c-0.34198,0.658173 -0.669983,1.316345 -1.023987,1.975555c-1.731995,3.266876 -3.513,6.490723 -5.386047,9.645386c0.004028,-0.016998 0.009033,-0.051056 0.009033,-0.060089c-56.312012,94.905365 -173.130997,140.472626 -281.372032,102.968933c-28.76899,-9.960999 -54.352993,-24.959076 -76.216,-43.599731c4.608994,-0.188324 9.205002,-0.504944 13.770996,-0.957703c74.381008,-7.319244 142.609013,-49.722778 181.436008,-115.982422c7.839996,-13.365143 14.493011,-27.686981 19.746002,-42.898468c17.113007,-49.594559 16.856995,-100.97229 2.519012,-147.53537c-13.209015,-42.890442 -38.384003,-81.638393 -73.016022,-111.185743c28.679016,-1.133043 58.053009,2.899231 86.821014,12.860224c123.848007,42.899448 189.535995,178.249821 146.718002,302.329853c-1.346985,3.906036 -2.786011,7.745972 -4.317993,11.541809z" fill="#d3c223" opacity="0.25"/>
  </g>
  <polygon points="472.8590087890625,305.7560119628906 454.0820007324219,277.1199951171875 421.04998779296875,286.13299560546875 442.48199462890625,259.4219970703125 423.7039794921875,230.78201293945312 455.7250061035156,242.906005859375 477.1610107421875,216.18600463867188 475.51800537109375,250.40899658203125 507.5379943847656,262.5329895019531 474.5059814453125,271.5459899902344 " fill="#efdf32"/>
  <polygon points="520.3679962158203,108.39801025390625 505.3840026855469,99.8330078125 489.83299255371094,107.3179931640625 493.35699462890625,90.41799926757812 481.4290008544922,77.93099975585938 498.5850067138672,76.06600952148438 506.77099609375,60.86500549316406 513.8509979248047,76.61199951171875 530.8320007324219,79.69400024414062 518.0590057373047,91.29299926757812 " fill="#F9EA32"/>
  <polygon points="335.04000091552734,141.33200073242188 314.560001373291,147.99398803710938 314.560001373291,169.51998901367188 301.89699935913086,152.10400390625 281.42099952697754,158.75698852539062 294.07500076293945,141.33200073242188 281.42099952697754,123.91598510742188 301.89699935913086,130.56500244140625 314.560001373291,113.1400146484375 314.560001373291,134.67898559570312 " fill="#f2e230"/>
 </g>
</svg>