<?xml version="1.0"?><svg width="730.09576" height="554.02332" xmlns="http://www.w3.org/2000/svg" xmlns:xlink="http://www.w3.org/1999/xlink">
 <title>moon and clouds</title>
 <defs>
  <filter id="filter7266" color-interpolation-filters="sRGB">
   <feGaussianBlur stdDeviation="18.142764" id="feGaussianBlur7268"/>
  </filter>
  <filter id="filter7314" color-interpolation-filters="sRGB">
   <feGaussianBlur stdDeviation="11.1754" id="feGaussianBlur7316"/>
  </filter>
  <filter id="filter7293" color-interpolation-filters="sRGB">
   <feGaussianBlur stdDeviation="7.756996" id="feGaussianBlur7295"/>
  </filter>
  <filter id="filter7343" color-interpolation-filters="sRGB">
   <feGaussianBlur stdDeviation="14.023709" id="feGaussianBlur7345"/>
  </filter>
  <linearGradient id="linearGradient8207">
   <stop stop-color="#ffe680" offset="0" id="stop8209"/>
   <stop stop-color="#ffe680" stop-opacity="0" offset="1" id="stop8211"/>
  </linearGradient>
  <linearGradient id="linearGradient8199">
   <stop stop-color="#aa8800" offset="0" id="stop8201"/>
   <stop stop-color="#aa8800" stop-opacity="0" offset="1" id="stop8203"/>
  </linearGradient>
  <linearGradient id="linearGradient8147">
   <stop stop-color="#b3b3b3" offset="0" id="stop8149"/>
   <stop stop-color="#ffffff" offset="1" id="stop8151"/>
  </linearGradient>
  <linearGradient id="linearGradient8092">
   <stop stop-color="#b3b3b3" offset="0" id="stop8094"/>
   <stop stop-color="#ffffff" offset="1" id="stop8096"/>
  </linearGradient>
  <linearGradient id="linearGradient8043">
   <stop stop-color="#ffffff" offset="0" id="stop8045"/>
   <stop stop-color="#ffffff" stop-opacity="0" offset="1" id="stop8047"/>
  </linearGradient>
  <linearGradient id="linearGradient8000">
   <stop stop-color="#000000" offset="0" id="stop8002"/>
   <stop stop-color="#000000" stop-opacity="0" offset="1" id="stop8004"/>
  </linearGradient>
  <linearGradient id="linearGradient7978">
   <stop stop-color="#000000" offset="0" id="stop7980"/>
   <stop stop-color="#000000" stop-opacity="0" offset="1" id="stop7982"/>
  </linearGradient>
  <linearGradient id="linearGradient7970">
   <stop stop-color="#ffffff" offset="0" id="stop7972"/>
   <stop stop-color="#808080" offset="1" id="stop7974"/>
  </linearGradient>
  <linearGradient id="linearGradient7954">
   <stop stop-color="#000000" offset="0" id="stop7956"/>
   <stop stop-color="#000000" stop-opacity="0" offset="1" id="stop7958"/>
  </linearGradient>
  <linearGradient id="linearGradient7946">
   <stop stop-color="#ffffff" offset="0" id="stop7948"/>
   <stop stop-color="#4d4d4d" stop-opacity="0" offset="1" id="stop7950"/>
  </linearGradient>
  <linearGradient id="linearGradient7934">
   <stop stop-color="#ffffff" offset="0" id="stop7936"/>
   <stop stop-color="#000000" offset="1" id="stop7938"/>
  </linearGradient>
  <linearGradient id="linearGradient7920">
   <stop stop-color="#000000" offset="0" id="stop7922"/>
   <stop stop-color="#000000" stop-opacity="0" offset="1" id="stop7924"/>
  </linearGradient>
  <linearGradient xlink:href="#linearGradient8000" id="linearGradient8315" y2="-0.519588" x2="0.619205" y1="1.267295" x1="0.708522"/>
  <linearGradient xlink:href="#linearGradient8199" id="linearGradient8317" y2="1.118055" x2="0.579275" y1="-0.274688" x1="0.498136"/>
  <linearGradient xlink:href="#linearGradient8207" id="linearGradient8319" y2="1.38326" x2="0.48535" y1="0.057141" x1="0.416573"/>
  <linearGradient xlink:href="#linearGradient7920" id="linearGradient8321" y2="-0.279405" x2="0.479617" y1="1.400182" x1="0.720002"/>
  <radialGradient gradientTransform="matrix(4.7646, -0.0935135, 0.057448, 2.92703, 3526.58, -11053.2)" gradientUnits="userSpaceOnUse" xlink:href="#linearGradient7934" id="radialGradient8323" fy="5678.9536" fx="-1022.6924" r="459.5751" cy="5678.9536" cx="-1022.6924"/>
  <radialGradient gradientTransform="matrix(4.7646, -0.0935135, 0.057448, 2.92703, 3137.49, -11067.8)" gradientUnits="userSpaceOnUse" xlink:href="#linearGradient7934" id="radialGradient8325" fy="5678.9536" fx="-1022.6924" r="459.5751" cy="5678.9536" cx="-1022.6924"/>
  <radialGradient gradientTransform="matrix(4.7646, -0.0935135, 0.057448, 2.92703, 3526.58, -11053.2)" gradientUnits="userSpaceOnUse" xlink:href="#linearGradient7934" id="radialGradient8327" fy="5678.9536" fx="-1022.6924" r="459.5751" cy="5678.9536" cx="-1022.6924"/>
  <linearGradient xlink:href="#linearGradient7954" id="linearGradient8329" y2="-0.314745" x2="0.420044" y1="1.327666" x1="0.484689"/>
  <linearGradient xlink:href="#linearGradient7954" id="linearGradient8331" y2="-0.314745" x2="0.420044" y1="1.327666" x1="0.484689"/>
  <radialGradient gradientTransform="matrix(1.47153, 0.143318, -0.121612, 1.24866, 199.615, -1943.08)" gradientUnits="userSpaceOnUse" xlink:href="#linearGradient7946" id="radialGradient8333" fy="5854.4761" fx="372.77731" r="695.57312" cy="5854.4761" cx="372.77731"/>
  <radialGradient gradientTransform="matrix(1.47153, 0.143318, -0.121612, 1.24866, 531.334, -1620.16)" gradientUnits="userSpaceOnUse" xlink:href="#linearGradient7946" id="radialGradient8335" fy="5854.4761" fx="372.77731" r="695.57312" cy="5854.4761" cx="372.77731"/>
  <linearGradient xlink:href="#linearGradient7978" id="linearGradient8337" y2="-0.509328" x2="0.466843" y1="1.044548" x1="0.57087"/>
  <linearGradient xlink:href="#linearGradient7978" id="linearGradient8339" y2="-0.509328" x2="0.466843" y1="1.044548" x1="0.57087"/>
  <radialGradient gradientTransform="matrix(1.42679, -0.0884963, 0.0598195, 0.966452, -670.424, 82.7903)" gradientUnits="userSpaceOnUse" xlink:href="#linearGradient7970" id="radialGradient8341" fy="6617.5522" fx="-268.3288" r="1086.3849" cy="6617.5522" cx="-268.3288"/>
  <radialGradient gradientTransform="matrix(1.42679, -0.0884963, 0.0598195, 0.966452, -281.338, 97.3655)" gradientUnits="userSpaceOnUse" xlink:href="#linearGradient7970" id="radialGradient8343" fy="6617.5522" fx="-268.3288" r="1086.3849" cy="6617.5522" cx="-268.3288"/>
  <linearGradient xlink:href="#linearGradient8043" id="linearGradient8345" y2="1.226535" x2="0.411525" y1="0.544315" x1="0.407252"/>
  <linearGradient xlink:href="#linearGradient8092" id="linearGradient8347" y2="0.38578" x2="0.410893" y1="1.036095" x1="0.419321"/>
  <linearGradient xlink:href="#linearGradient8147" id="linearGradient8349" y2="0.444744" x2="0.543501" y1="0.96397" x1="0.55062"/>
  <radialGradient gradientTransform="matrix(1.42679, -0.0884963, 0.0598195, 0.966452, -281.338, 97.3655)" gradientUnits="userSpaceOnUse" xlink:href="#linearGradient7970" id="radialGradient8351" fy="6617.5522" fx="-268.3288" r="1086.3849" cy="6617.5522" cx="-268.3288"/>
 </defs>
 <metadata id="metadata7748">image/svg+xml</metadata>
 <g>
  <title>Layer 1</title>
  <g id="layer1">
   <g id="g8215">
    <path fill="url(#linearGradient8315)" filter="url(#filter7266)" id="path7240" d="m398.971649,12.304165c-42.11142,0.397764 -83.886169,15.161179 -117.277496,41.358658c-35.301224,27.464184 -61.285248,67.383152 -72.112274,111.532078c-11.468491,46.0952 -6.625534,96.393356 13.856003,139.114456c20.02713,42.226776 54.663406,76.807587 96.392746,96.118439c42.187744,19.692352 91.256287,23.404053 135.81427,10.33139c5.799957,-1.63913 11.47406,-3.639099 17.148376,-5.697601c-25.53714,-7.903351 -49.613007,-20.910706 -69.979858,-38.565765c-32.450592,-27.853699 -55.64212,-67.107697 -64.382355,-109.550446c-9.252197,-43.96492 -3.413971,-91.232193 16.67218,-131.231041c21.758881,-43.894402 59.962433,-78.799175 105.072998,-95.633774c4.132813,-1.593397 8.32901,-2.975243 12.513916,-4.43091c-23.518677,-9.002031 -48.582367,-13.757297 -73.718506,-13.345484z"/>
    <path fill="#ffffff" id="path7075" d="m407.518005,27.99831c-107.821014,0 -195.231018,87.41 -195.231018,195.230999c0,107.820984 87.410004,195.216003 195.231018,195.216003c21.872986,0 42.904968,-3.58902 62.537964,-10.223999c-77.146973,-26.072021 -132.691956,-99.045013 -132.691956,-184.992004c0,-85.947998 55.544983,-158.935402 132.691956,-185.006901c-19.632996,-6.634998 -40.664978,-10.224098 -62.537964,-10.224098l0,0z"/>
    <path fill="url(#linearGradient8317)" id="path7988" d="m407.518005,27.99831c-107.821014,0 -195.231018,87.41 -195.231018,195.230999c0,107.820984 87.410004,195.216003 195.231018,195.216003c21.872986,0 42.904968,-3.58902 62.537964,-10.223999c-77.146973,-26.072021 -132.691956,-99.045013 -132.691956,-184.992004c0,-85.947998 55.544983,-158.935402 132.691956,-185.006901c-19.632996,-6.634998 -40.664978,-10.224098 -62.537964,-10.224098l0,0z"/>
    <path fill="url(#linearGradient8319)" id="path8183" d="m405.157776,35.24131c-84.628418,0.292641 -164.090698,64.935532 -180.343781,148.093742c-15.486786,69.855957 12.345245,147.718933 70.375,189.78125c42.850006,32.303833 100.123077,45.955658 152.937469,33.90625c-77.039703,-35.035156 -126.931183,-122.075287 -115.857269,-206.493774c7.640564,-68.850861 52.685242,-133.056564 116.38858,-161.006218c-14.301697,-2.84536 -28.876709,-4.615669 -43.5,-4.28125z"/>
    <g fill="#000000" id="g7274" transform="matrix(0.275037, 0, 0, 0.29128, 522.202, -1413.79)">
     <g fill="#000000" id="g7276" transform="matrix(0.660714, 0, 0, 0.660714, -1293.64, 1915.05)"/>
     <path fill="url(#linearGradient8321)" filter="url(#filter7293)" id="path7278" d="m-1484.054565,5320.237305c-47.765747,0.133789 -97.15686,20.77832 -125.134888,60.507324c-4.024292,4.60498 -6.039551,11.331055 -9.833862,15.430176c-41.821411,-2.662109 -86.526367,17.875488 -105.526978,56.370117c-3.087158,6.23291 -5.360229,12.876953 -6.848022,19.661133c-45.637329,-2.730957 -94.468872,10.105469 -126.625,43.875c-18.908325,20.15332 -27.787476,50.710449 -18,77.15625c6.47229,18.960938 20.388306,34.668457 36.5625,46.0625c-27.321533,30.270508 -37.925903,75.735352 -23.106323,114.255859c12.363281,33.790527 40.183105,60.25293 72.387573,75.369141c-2.54126,26.76123 15.240723,51.064941 36.687622,65.1875c38.14209,26.141113 85.600708,34.501465 131.156128,34.34375c28.102295,-0.303711 56.232178,-4.585938 82.75,-13.84375c92.907104,19.423828 189.031128,21.833008 283.260132,11.487793c58.856934,-7.036133 118.466064,-18.669922 171.58374,-45.519043c22.651489,-11.76416 45.831055,-28.155273 54.5625,-53.21875c2.321777,-7.360352 2.79834,-15.387695 1.59375,-22.96875c36.209839,-3.519043 66.739075,-31.186035 79.402588,-64.490723c18.923218,-47.056152 6.440186,-107.030762 -34.671387,-138.359375c-13.440613,-10.27832 -29.877625,-16.888672 -46.793701,-18.118652c-1.100098,-48.710938 -34.357666,-93.265625 -78.40625,-112.53125c-5.782471,-3.065918 -13.506836,-4.754883 -18.53125,-7.46875c7.644165,-20.294434 -0.868896,-43.70752 -16.916382,-57.34082c-27.484009,-25.446289 -65.38916,-35.192383 -101.614868,-40.34668c-38.464844,-4.955078 -78.119507,-2.726563 -115.65625,7.25c-29.517822,-35.541016 -76.665649,-53.291016 -122.281372,-52.75z"/>
    </g>
    <g fill="#ffffff" id="g7147" transform="matrix(0.275037, 0, 0, 0.275037, 522.202, -1307.04)">
     <g fill="#ffffff" id="g7115" transform="matrix(0.660714, 0, 0, 0.660714, -1293.64, 1915.05)"/>
     <path fill="#ffffff" id="path7145" d="m-1134.85498,5446.071777c0,40.59375 -67.420532,73.501465 -150.588013,73.501465c-83.16748,0 -150.588013,-32.907715 -150.588013,-73.501465c0,-40.59375 67.420532,-73.501465 150.588013,-73.501465c83.16748,0 150.588013,32.907715 150.588013,73.501465zm96.806519,365.713867c0,60.395508 -145.275269,109.355469 -324.481323,109.355469c-179.206055,0 -324.481201,-48.959961 -324.481201,-109.355469c0,-60.395508 145.275146,-109.355469 324.481201,-109.355469c179.206055,0 324.481323,48.959961 324.481323,109.355469zm-433.836914,21.512207c0,46.53418 -69.025757,84.257324 -154.17334,84.257324c-85.147583,0 -154.17334,-37.723145 -154.17334,-84.257324c0,-46.53418 69.025757,-84.257324 154.17334,-84.257324c85.147583,0 154.17334,37.723145 154.17334,84.257324zm-93.221069,-118.318848c0,66.335938 -65.815308,120.111816 -147.002563,120.111816c-81.187256,0 -147.002563,-53.775879 -147.002563,-120.111816c0,-66.335938 65.815308,-120.111816 147.002563,-120.111816c81.187256,0 147.002563,53.775879 147.002563,120.111816zm251.94043,55.189941c0,49.716309 -78.485352,90.02002 -175.301758,90.02002c-96.816528,0 -175.30188,-40.303711 -175.30188,-90.02002c0,-49.716797 78.485352,-90.02002 175.30188,-90.02002c96.816406,0 175.301758,40.303223 175.301758,90.02002zm281.904297,-67.514648c0,80.462402 -102.348999,145.689941 -228.603027,145.689941c-126.253906,0 -228.603027,-65.227539 -228.603027,-145.689941c0,-80.462402 102.349121,-145.69043 228.603027,-145.69043c126.254028,0 228.603027,65.228027 228.603027,145.69043zm-194.253418,55.669922c0,34.016602 -119.318848,61.592285 -266.506104,61.592285c-147.187256,0 -266.506226,-27.575684 -266.506226,-61.592285c0,-34.016602 119.31897,-61.592773 266.506226,-61.592773c147.187256,0 266.506104,27.576172 266.506104,61.592773zm-75.806152,-158.719238c0,57.566406 -75.83374,104.233398 -169.379395,104.233398c-93.545776,0 -169.379517,-46.666992 -169.379517,-104.233398c0,-57.566406 75.83374,-104.233398 169.379517,-104.233398c93.545654,0 169.379395,46.666992 169.379395,104.233398zm-229.787598,71.068359c0,49.716797 -60.454834,90.02002 -135.029785,90.02002c-74.574829,0 -135.029785,-40.303223 -135.029785,-90.02002c0,-49.716797 60.454956,-90.02002 135.029785,-90.02002c74.574951,0 135.029785,40.303223 135.029785,90.02002zm-85.281982,-101.864746c0,48.408203 -56.742676,87.650879 -126.738525,87.650879c-69.995605,0 -126.738403,-39.242676 -126.738403,-87.650879c0,-48.408203 56.742798,-87.650879 126.738403,-87.650879c69.99585,0 126.738525,39.242676 126.738525,87.650879zm87.651001,-80.543945c0,45.791504 -43.485107,82.913086 -97.126709,82.913086c-53.641602,0 -97.126709,-37.121582 -97.126709,-82.913086c0,-45.791504 43.485107,-82.913086 97.126709,-82.913086c53.641479,0 97.126709,37.121582 97.126709,82.913086zm578.022217,204.913574c0,55.604004 -38.71228,100.680176 -86.466431,100.680176c-47.75415,0 -86.466431,-45.076172 -86.466431,-100.680176c0,-55.604004 38.71228,-100.680176 86.466431,-100.680176c47.75415,0 86.466431,45.076172 86.466431,100.680176zm-90.019897,-106.602539c0,66.070801 -58.333618,119.631836 -130.291748,119.631836c-71.958252,0 -130.291992,-53.561035 -130.291992,-119.631836c0,-66.070801 58.33374,-119.631348 130.291992,-119.631348c71.95813,0 130.291748,53.560547 130.291748,119.631348zm-170.563843,-76.990723c0,69.341309 -49.318481,125.553711 -110.155884,125.553711c-60.837402,0 -110.155884,-56.212402 -110.155884,-125.553711c0,-69.341797 49.318481,-125.554199 110.155884,-125.554199c60.837402,0 110.155884,56.212402 110.155884,125.554199zm-135.029785,-68.699219c0,61.491699 -60.985229,111.340332 -136.214233,111.340332c-75.229126,0 -136.214355,-49.848633 -136.214355,-111.340332c0,-61.491699 60.985229,-111.340332 136.214355,-111.340332c75.229004,0 136.214233,49.848633 136.214233,111.340332z"/>
    </g>
    <g fill="url(#radialGradient8327)" id="g7928" transform="matrix(0.275037, 0, 0, 0.275037, 522.202, -1307.04)">
     <g fill="url(#radialGradient8323)" id="g7930" transform="matrix(0.660714, 0, 0, 0.660714, -1293.64, 1915.05)"/>
     <path fill="url(#radialGradient8325)" id="path7932" d="m-1134.85498,5446.071777c0,40.59375 -67.420532,73.501465 -150.588013,73.501465c-83.16748,0 -150.588013,-32.907715 -150.588013,-73.501465c0,-40.59375 67.420532,-73.501465 150.588013,-73.501465c83.16748,0 150.588013,32.907715 150.588013,73.501465zm96.806519,365.713867c0,60.395508 -145.275269,109.355469 -324.481323,109.355469c-179.206055,0 -324.481201,-48.959961 -324.481201,-109.355469c0,-60.395508 145.275146,-109.355469 324.481201,-109.355469c179.206055,0 324.481323,48.959961 324.481323,109.355469zm-433.836914,21.512207c0,46.53418 -69.025757,84.257324 -154.17334,84.257324c-85.147583,0 -154.17334,-37.723145 -154.17334,-84.257324c0,-46.53418 69.025757,-84.257324 154.17334,-84.257324c85.147583,0 154.17334,37.723145 154.17334,84.257324zm-93.221069,-118.318848c0,66.335938 -65.815308,120.111816 -147.002563,120.111816c-81.187256,0 -147.002563,-53.775879 -147.002563,-120.111816c0,-66.335938 65.815308,-120.111816 147.002563,-120.111816c81.187256,0 147.002563,53.775879 147.002563,120.111816zm251.94043,55.189941c0,49.716309 -78.485352,90.02002 -175.301758,90.02002c-96.816528,0 -175.30188,-40.303711 -175.30188,-90.02002c0,-49.716797 78.485352,-90.02002 175.30188,-90.02002c96.816406,0 175.301758,40.303223 175.301758,90.02002zm281.904297,-67.514648c0,80.462402 -102.348999,145.689941 -228.603027,145.689941c-126.253906,0 -228.603027,-65.227539 -228.603027,-145.689941c0,-80.462402 102.349121,-145.69043 228.603027,-145.69043c126.254028,0 228.603027,65.228027 228.603027,145.69043zm-194.253418,55.669922c0,34.016602 -119.318848,61.592285 -266.506104,61.592285c-147.187256,0 -266.506226,-27.575684 -266.506226,-61.592285c0,-34.016602 119.31897,-61.592773 266.506226,-61.592773c147.187256,0 266.506104,27.576172 266.506104,61.592773zm-75.806152,-158.719238c0,57.566406 -75.83374,104.233398 -169.379395,104.233398c-93.545776,0 -169.379517,-46.666992 -169.379517,-104.233398c0,-57.566406 75.83374,-104.233398 169.379517,-104.233398c93.545654,0 169.379395,46.666992 169.379395,104.233398zm-229.787598,71.068359c0,49.716797 -60.454834,90.02002 -135.029785,90.02002c-74.574829,0 -135.029785,-40.303223 -135.029785,-90.02002c0,-49.716797 60.454956,-90.02002 135.029785,-90.02002c74.574951,0 135.029785,40.303223 135.029785,90.02002zm-85.281982,-101.864746c0,48.408203 -56.742676,87.650879 -126.738525,87.650879c-69.995605,0 -126.738403,-39.242676 -126.738403,-87.650879c0,-48.408203 56.742798,-87.650879 126.738403,-87.650879c69.99585,0 126.738525,39.242676 126.738525,87.650879zm87.651001,-80.543945c0,45.791504 -43.485107,82.913086 -97.126709,82.913086c-53.641602,0 -97.126709,-37.121582 -97.126709,-82.913086c0,-45.791504 43.485107,-82.913086 97.126709,-82.913086c53.641479,0 97.126709,37.121582 97.126709,82.913086zm578.022217,204.913574c0,55.604004 -38.71228,100.680176 -86.466431,100.680176c-47.75415,0 -86.466431,-45.076172 -86.466431,-100.680176c0,-55.604004 38.71228,-100.680176 86.466431,-100.680176c47.75415,0 86.466431,45.076172 86.466431,100.680176zm-90.019897,-106.602539c0,66.070801 -58.333618,119.631836 -130.291748,119.631836c-71.958252,0 -130.291992,-53.561035 -130.291992,-119.631836c0,-66.070801 58.33374,-119.631348 130.291992,-119.631348c71.95813,0 130.291748,53.560547 130.291748,119.631348zm-170.563843,-76.990723c0,69.341309 -49.318481,125.553711 -110.155884,125.553711c-60.837402,0 -110.155884,-56.212402 -110.155884,-125.553711c0,-69.341797 49.318481,-125.554199 110.155884,-125.554199c60.837402,0 110.155884,56.212402 110.155884,125.554199zm-135.029785,-68.699219c0,61.491699 -60.985229,111.340332 -136.214233,111.340332c-75.229126,0 -136.214355,-49.848633 -136.214355,-111.340332c0,-61.491699 60.985229,-111.340332 136.214355,-111.340332c75.229004,0 136.214233,49.848633 136.214233,111.340332z"/>
    </g>
    <g fill="url(#linearGradient8331)" id="g7270" transform="matrix(0.275037, 0, 0, 0.274152, 522.202, -1321.34)">
     <path fill="url(#linearGradient8329)" filter="url(#filter7314)" id="path7272" d="m-89.085815,5165.217285c-64.576996,0.490234 -130.615005,25.700195 -173.337006,75.110352c-10.52298,12.05957 -19.363983,25.659668 -26.037994,40.169922c-56.246613,-4.910156 -116.203003,18.120117 -149.125,64.879883c-10.433197,14.890137 -17.840515,32.080078 -20.875,50.089844c-62.823975,-4.609863 -129.27002,10.240234 -178.281006,51.160156c-27.782959,23.560059 -47.947998,58.850098 -45.625,96.220215c1.926025,38.669922 26.468994,72.819824 57.370972,94.589844c15.33905,11.27002 32.753052,19.580078 50.160034,26.660156c-10.190002,35.82959 1.526001,75.389648 26.343994,102.5c12.163025,13.949707 26.887024,25.599609 42.718018,35.089844c-9.963013,12.299805 -11.199036,31.319824 -0.812012,43.719727c15.790009,20.910156 41.504211,30.400391 65.156189,39.470215c32.870117,11.75 67.372314,18.419922 101.375,25c37.018127,37.02002 87.839813,55.939941 137.953812,67.399902c78.005997,16.820313 160.431992,15.180176 237.413986,-5.830078c21.022003,-5.939941 41.585999,-13.549805 61.007019,-23.47998c97.672974,29.800293 204.382996,30.280273 302.531982,2c50.187988,-14.72998 98.619995,-38.029785 138.437012,-72.469727c41.21698,18.739746 92.304993,12.199707 127.875,-15.740234c47.930054,-36.330078 69.910034,-99.97998 62.469971,-158.790039c-6.150024,-52.540039 -36.76001,-103.929688 -85.280029,-127.279785c-15.429932,-7.560059 -32.768921,-11.669922 -49.658936,-12.589844c0.133972,-60.27002 -33.237976,-117.880371 -82.531006,-151.530273c-53.122009,-37.069824 -123.35199,-47.839844 -185.562012,-30.100098c-17.830994,-59.439941 -64.656982,-112.080078 -125.656982,-128.369629c-31.254028,-8.450195 -65.403015,-7.060059 -95.718994,4.25c-35.893005,-53.160156 -98.274017,-84.17041 -161.218018,-90.660156c-10.315002,-1.129883 -20.712006,-1.569824 -31.093994,-1.470215l0,0z"/>
    </g>
    <g fill="#ffffff" id="g7102" transform="matrix(0.275037, 0, 0, 0.275037, 522.202, -1305.65)">
     <path fill="#ffffff" id="path7100" d="m170.241013,5842.262207c0,75.246582 -118.78857,136.246094 -265.321716,136.246094c-146.533142,0 -265.321701,-60.999512 -265.321701,-136.246094c0,-75.246582 118.788559,-136.246094 265.321701,-136.246094c146.533115,0 265.321716,60.999512 265.321716,136.246094zm426.666092,-102.18457c0,121.780762 -154.906738,220.503906 -345.993912,220.503906c-191.087124,0 -345.993866,-98.723145 -345.993866,-220.503906c0,-121.780762 154.906742,-220.503906 345.993866,-220.503906c191.087173,0 345.993912,98.723145 345.993912,220.503906zm-294.005188,84.257324c0,51.484375 -180.590775,93.221191 -403.360764,93.221191c-222.769974,0 -403.360733,-41.736816 -403.360733,-93.221191c0,-51.484863 180.590759,-93.221191 403.360733,-93.221191c222.769989,0 403.360764,41.736328 403.360764,93.221191zm-114.733719,-240.223633c0,87.12793 -114.775452,157.758789 -256.358154,157.758789c-141.582703,0 -256.358139,-70.630859 -256.358139,-157.758789c0,-87.12793 114.775436,-157.758789 256.358139,-157.758789c141.582703,0 256.358154,70.630859 256.358154,157.758789zm-233.052853,347.786621c0,75.246582 -91.499332,136.246094 -204.36945,136.246094c-112.870132,0 -204.369431,-60.999512 -204.369431,-136.246094c0,-75.24707 91.499298,-136.246582 204.369431,-136.246582c112.870132,0 204.36945,60.999512 204.36945,136.246582zm-243.809193,-394.397461c0,73.266602 -85.88092,132.661133 -191.820435,132.661133c-105.939514,0 -191.820435,-59.394531 -191.820435,-132.661133c0,-73.266602 85.880981,-132.660645 191.820435,-132.660645c105.939514,0 191.820435,59.394043 191.820435,132.660645zm376.470047,272.493164c0,69.306152 -65.815273,125.490234 -147.00256,125.490234c-81.187275,0 -147.002583,-56.184082 -147.002583,-125.490234c0,-69.306152 65.815292,-125.490234 147.002583,-125.490234c81.187286,0 147.00256,56.184082 147.00256,125.490234zm742.183701,432.043945c0,84.157715 -58.591553,152.380859 -130.868164,152.380859c-72.276428,0 -130.868103,-68.223145 -130.868103,-152.380859c0,-84.157715 58.591675,-152.380859 130.868103,-152.380859c72.276611,0 130.868164,68.223145 130.868164,152.380859zm-247.394592,-677.645996c0,99.999023 -88.288818,181.063965 -197.198547,181.063965c-108.90979,0 -197.198624,-81.064941 -197.198624,-181.063965c0,-99.999023 88.288834,-181.063965 197.198624,-181.063965c108.909729,0 197.198547,81.064941 197.198547,181.063965zm-10.756165,561.119141c0,104.949219 -74.644165,190.027832 -166.722412,190.027832c-92.078308,0 -166.722488,-85.078613 -166.722488,-190.027832c0,-104.949219 74.64418,-190.027832 166.722488,-190.027832c92.078247,0 166.722412,85.078613 166.722412,190.027832zm-193.613342,-665.096191c0,93.068359 -92.301941,168.515137 -206.162186,168.515137c-113.860195,0 -206.162136,-75.446777 -206.162136,-168.515137c0,-93.068359 92.301941,-168.515137 206.162136,-168.515137c113.860245,0 206.162186,75.446777 206.162186,168.515137z"/>
    </g>
    <g fill="url(#radialGradient8335)" id="g7942" transform="matrix(0.275037, 0, 0, 0.275037, 522.202, -1305.65)">
     <path fill="url(#radialGradient8333)" id="path7944" d="m170.241013,5842.262207c0,75.246582 -118.78857,136.246094 -265.321716,136.246094c-146.533142,0 -265.321701,-60.999512 -265.321701,-136.246094c0,-75.246582 118.788559,-136.246094 265.321701,-136.246094c146.533115,0 265.321716,60.999512 265.321716,136.246094zm426.666092,-102.18457c0,121.780762 -154.906738,220.503906 -345.993912,220.503906c-191.087124,0 -345.993866,-98.723145 -345.993866,-220.503906c0,-121.780762 154.906742,-220.503906 345.993866,-220.503906c191.087173,0 345.993912,98.723145 345.993912,220.503906zm-294.005188,84.257324c0,51.484375 -180.590775,93.221191 -403.360764,93.221191c-222.769974,0 -403.360733,-41.736816 -403.360733,-93.221191c0,-51.484863 180.590759,-93.221191 403.360733,-93.221191c222.769989,0 403.360764,41.736328 403.360764,93.221191zm-114.733719,-240.223633c0,87.12793 -114.775452,157.758789 -256.358154,157.758789c-141.582703,0 -256.358139,-70.630859 -256.358139,-157.758789c0,-87.12793 114.775436,-157.758789 256.358139,-157.758789c141.582703,0 256.358154,70.630859 256.358154,157.758789zm-233.052853,347.786621c0,75.246582 -91.499332,136.246094 -204.36945,136.246094c-112.870132,0 -204.369431,-60.999512 -204.369431,-136.246094c0,-75.24707 91.499298,-136.246582 204.369431,-136.246582c112.870132,0 204.36945,60.999512 204.36945,136.246582zm-243.809193,-394.397461c0,73.266602 -85.88092,132.661133 -191.820435,132.661133c-105.939514,0 -191.820435,-59.394531 -191.820435,-132.661133c0,-73.266602 85.880981,-132.660645 191.820435,-132.660645c105.939514,0 191.820435,59.394043 191.820435,132.660645zm376.470047,272.493164c0,69.306152 -65.815273,125.490234 -147.00256,125.490234c-81.187275,0 -147.002583,-56.184082 -147.002583,-125.490234c0,-69.306152 65.815292,-125.490234 147.002583,-125.490234c81.187286,0 147.00256,56.184082 147.00256,125.490234zm742.183701,432.043945c0,84.157715 -58.591553,152.380859 -130.868164,152.380859c-72.276428,0 -130.868103,-68.223145 -130.868103,-152.380859c0,-84.157715 58.591675,-152.380859 130.868103,-152.380859c72.276611,0 130.868164,68.223145 130.868164,152.380859zm-247.394592,-677.645996c0,99.999023 -88.288818,181.063965 -197.198547,181.063965c-108.90979,0 -197.198624,-81.064941 -197.198624,-181.063965c0,-99.999023 88.288834,-181.063965 197.198624,-181.063965c108.909729,0 197.198547,81.064941 197.198547,181.063965zm-10.756165,561.119141c0,104.949219 -74.644165,190.027832 -166.722412,190.027832c-92.078308,0 -166.722488,-85.078613 -166.722488,-190.027832c0,-104.949219 74.64418,-190.027832 166.722488,-190.027832c92.078247,0 166.722412,85.078613 166.722412,190.027832zm-193.613342,-665.096191c0,93.068359 -92.301941,168.515137 -206.162186,168.515137c-113.860195,0 -206.162136,-75.446777 -206.162136,-168.515137c0,-93.068359 92.301941,-168.515137 206.162136,-168.515137c113.860245,0 206.162186,75.446777 206.162186,168.515137z"/>
    </g>
    <g fill="url(#linearGradient8339)" id="g7280" transform="matrix(0.275037, 0, 0, 0.283207, 522.202, -1372.98)">
     <path fill="url(#linearGradient8337)" filter="url(#filter7343)" id="path7282" d="m-155.210815,6158.845215c-65.222839,0.476074 -132.275635,26.32959 -173.970001,77.748535c-6.304413,7.835449 -11.936798,16.275879 -16.717499,25.157715c-56.199799,-16.314453 -116.791229,-17.271484 -173.906128,-5.220215c-5.402832,1.816895 -11.076782,2.672852 -16.219849,-0.535645c-72.277161,-26.165039 -150.491577,-32.038086 -226.834961,-27.557129c-56.704346,3.835449 -113.808228,14.418457 -165.402283,38.697754c-7.06543,2.987793 -13.733459,8.255859 -20.779602,10.257324c-81.027588,-24.797852 -167.504028,-29.376953 -251.790405,-22.237793c-58.651611,5.574219 -118.020874,17.255859 -170.566406,44.705566c-9.034668,4.959473 -17.671753,10.496582 -25.718994,16.983887c-76.102173,-7.74707 -154.273804,-4.65332 -227.906372,16.875c-28.320557,8.588379 -57.234863,20.522949 -77.65625,42.65625c-11.702393,13.26416 -16.628296,33.469727 -8.03125,49.625c4.44165,9.262207 11.595215,16.973145 19.53125,23.34375c-30.59082,7.845215 -61.988281,17.29248 -86.96875,37.375c-11.86792,9.806641 -20.250244,26.963867 -13.375,42c8.827515,20.176758 30.197754,30.537598 49.233154,38.828125c48.872437,20.195313 101.71106,28.134766 153.954346,34.421875c90.065796,10.005859 181.28772,9.483398 271.375,0.75c3.864136,-0.319824 3.953491,5.143066 6.625,7.0625c22.38855,28.056641 56.921753,42.543945 90.109863,53.48877c68.605591,21.351074 141.830444,25.04248 213.096924,18.19873c7.659058,-0.809082 15.308228,-1.720215 22.918213,-2.90625c35.908813,32.538574 82.893738,49.191895 128.832214,62.414063c94.805481,25.953613 193.953064,32.422363 291.979309,28.541016c77.930878,-3.523926 156.130402,-14.580566 229.907257,-40.330078c35.316589,-12.774902 70.801971,-29.09082 97.192291,-56.495605c2.325424,-4.452148 7.357239,0.631348 10.987961,0.708008c82.496811,23.983887 170.400803,27.248535 255.288498,15.225098c54.826752,-8.260742 109.89975,-23.497559 156.406219,-54.5c24.290649,-16.529785 46.572998,-40.451172 50.75,-70.5c0.107849,-3.715332 0.226624,-7.199219 4.875,-7.15625c54.778748,-18.154297 106.461792,-52.430664 135.864563,-103.18457c25.171448,-42.775879 28.362,-98.016602 6.866455,-142.853027c-24.383301,-52.773926 -73.750366,-90.044922 -126.965271,-110.855469c-77.622314,-30.429199 -166.714294,-30.341309 -244.609467,-0.919434c-6.463776,2.51709 -12.891785,5.192871 -19.15625,8.15625c-42.024048,-32.851563 -96.07785,-48.602051 -149.218781,-47.96875z"/>
    </g>
    <g fill="#ffffff" id="g7187" transform="matrix(0.275037, 0, 0, 0.275037, 523.597, -1307.04)">
     <path fill="#ffffff" id="path7185" d="m-1231.661621,6406.966797c0,46.53418 -105.946533,84.257813 -236.638306,84.257813c-130.69165,0 -236.638306,-37.723633 -236.638306,-84.257813c0,-46.53418 105.946655,-84.257813 236.638306,-84.257813c130.691772,0 236.638306,37.723633 236.638306,84.257813zm114.733887,109.355469c0,45.543945 -149.28833,82.464844 -333.444946,82.464844c-184.156494,0 -333.444946,-36.920898 -333.444946,-82.464844c0,-45.543945 149.288452,-82.464844 333.444946,-82.464844c184.156616,0 333.444946,36.920898 333.444946,82.464844zm294.005005,55.574219c0,56.435059 -109.959717,102.18457 -245.601929,102.18457c-135.64209,0 -245.601807,-45.749512 -245.601807,-102.18457c0,-56.435059 109.959717,-102.18457 245.601807,-102.18457c135.642212,0 245.601929,45.749512 245.601929,102.18457zm598.766617,50.195801c0,76.236816 -174.169754,138.039063 -389.019058,138.039063c-214.849243,0 -389.018982,-61.802246 -389.018982,-138.039063c0,-76.236816 174.169739,-138.039063 389.018982,-138.039063c214.849304,0 389.019058,61.802246 389.019058,138.039063zm451.764023,-68.123047c0,72.276367 -130.02533,130.868164 -290.419739,130.868164c-160.394394,0 -290.419739,-58.591797 -290.419739,-130.868164c0,-72.276367 130.025345,-130.868164 290.419739,-130.868164c160.394409,0 290.419739,58.591797 290.419739,130.868164zm161.344299,-179.271484c0,103.959473 -113.972839,188.234863 -254.56543,188.234863c-140.592651,0 -254.56546,-84.275391 -254.56546,-188.234863c0,-103.959473 113.972839,-188.234863 254.56546,-188.234863c140.59259,0 254.56543,84.275391 254.56543,188.234863zm-340.615723,-44.817871c0,89.10791 -89.894073,161.344238 -200.784027,161.344238c-110.889954,0 -200.783997,-72.236328 -200.783997,-161.344238c0,-89.10791 89.894073,-161.344238 200.783997,-161.344238c110.889954,0 200.784027,72.236328 200.784027,161.344238zm-319.10321,7.170898c0,43.563965 -77.052032,78.879395 -172.100555,78.879395c-95.048553,0 -172.100616,-35.31543 -172.100616,-78.879395c0,-43.563965 77.052124,-78.879395 172.100616,-78.879395c95.048523,0 172.100555,35.31543 172.100555,78.879395zm-179.271393,10.756348c0,61.385254 -120.393829,111.148438 -268.907196,111.148438c-148.513306,0 -268.907166,-49.763184 -268.907166,-111.148438c0,-61.385742 120.39386,-111.148438 268.907166,-111.148438c148.513367,0 268.907196,49.762695 268.907196,111.148438zm-397.982635,23.305176c0,60.395508 -127.617493,109.355469 -285.041626,109.355469c-157.424194,0 -285.041626,-48.959961 -285.041626,-109.355469c0,-60.395508 127.617432,-109.355469 285.041626,-109.355469c157.424133,0 285.041626,48.959961 285.041626,109.355469zm1118.653809,105.77002c0,83.16748 -432.615219,150.587891 -966.273071,150.587891c-533.657837,0 -966.273071,-67.42041 -966.273071,-150.587891c0,-83.16748 432.615234,-150.587891 966.273071,-150.587891c533.657883,0 966.273071,67.42041 966.273071,150.587891z"/>
    </g>
    <g fill="url(#radialGradient8343)" id="g7966" transform="matrix(0.275037, 0, 0, 0.275037, 523.597, -1307.04)">
     <path fill="url(#radialGradient8341)" id="path7968" d="m-1231.661621,6406.966797c0,46.53418 -105.946533,84.257813 -236.638306,84.257813c-130.69165,0 -236.638306,-37.723633 -236.638306,-84.257813c0,-46.53418 105.946655,-84.257813 236.638306,-84.257813c130.691772,0 236.638306,37.723633 236.638306,84.257813zm114.733887,109.355469c0,45.543945 -149.28833,82.464844 -333.444946,82.464844c-184.156494,0 -333.444946,-36.920898 -333.444946,-82.464844c0,-45.543945 149.288452,-82.464844 333.444946,-82.464844c184.156616,0 333.444946,36.920898 333.444946,82.464844zm294.005005,55.574219c0,56.435059 -109.959717,102.18457 -245.601929,102.18457c-135.64209,0 -245.601807,-45.749512 -245.601807,-102.18457c0,-56.435059 109.959717,-102.18457 245.601807,-102.18457c135.642212,0 245.601929,45.749512 245.601929,102.18457zm598.766617,50.195801c0,76.236816 -174.169754,138.039063 -389.019058,138.039063c-214.849243,0 -389.018982,-61.802246 -389.018982,-138.039063c0,-76.236816 174.169739,-138.039063 389.018982,-138.039063c214.849304,0 389.019058,61.802246 389.019058,138.039063zm451.764023,-68.123047c0,72.276367 -130.02533,130.868164 -290.419739,130.868164c-160.394394,0 -290.419739,-58.591797 -290.419739,-130.868164c0,-72.276367 130.025345,-130.868164 290.419739,-130.868164c160.394409,0 290.419739,58.591797 290.419739,130.868164zm161.344299,-179.271484c0,103.959473 -113.972839,188.234863 -254.56543,188.234863c-140.592651,0 -254.56546,-84.275391 -254.56546,-188.234863c0,-103.959473 113.972839,-188.234863 254.56546,-188.234863c140.59259,0 254.56543,84.275391 254.56543,188.234863zm-340.615723,-44.817871c0,89.10791 -89.894073,161.344238 -200.784027,161.344238c-110.889954,0 -200.783997,-72.236328 -200.783997,-161.344238c0,-89.10791 89.894073,-161.344238 200.783997,-161.344238c110.889954,0 200.784027,72.236328 200.784027,161.344238zm-319.10321,7.170898c0,43.563965 -77.052032,78.879395 -172.100555,78.879395c-95.048553,0 -172.100616,-35.31543 -172.100616,-78.879395c0,-43.563965 77.052124,-78.879395 172.100616,-78.879395c95.048523,0 172.100555,35.31543 172.100555,78.879395zm-179.271393,10.756348c0,61.385254 -120.393829,111.148438 -268.907196,111.148438c-148.513306,0 -268.907166,-49.763184 -268.907166,-111.148438c0,-61.385742 120.39386,-111.148438 268.907166,-111.148438c148.513367,0 268.907196,49.762695 268.907196,111.148438zm-397.982635,23.305176c0,60.395508 -127.617493,109.355469 -285.041626,109.355469c-157.424194,0 -285.041626,-48.959961 -285.041626,-109.355469c0,-60.395508 127.617432,-109.355469 285.041626,-109.355469c157.424133,0 285.041626,48.959961 285.041626,109.355469zm1118.653809,105.77002c0,83.16748 -432.615219,150.587891 -966.273071,150.587891c-533.657837,0 -966.273071,-67.42041 -966.273071,-150.587891c0,-83.16748 432.615234,-150.587891 966.273071,-150.587891c533.657883,0 966.273071,67.42041 966.273071,150.587891z"/>
    </g>
    <g fill="#ffffff" id="g8008" transform="matrix(0.275037, 0, 0, 0.275037, 522.202, -1307.04)">
     <g fill="#ffffff" id="g8010" transform="matrix(0.660714, 0, 0, 0.660714, -1293.64, 1915.05)"/>
     <path fill="url(#linearGradient8345)" id="path8012" d="m-1485.867065,5344.018555c-43.088257,0.411621 -87.622559,21.618652 -109.09375,59.875c-1.492798,11.594238 -14.314453,20.465332 -25.557373,16.148438c-37.344727,-3.468262 -77.750977,19.66748 -86.942627,57.289063c-1.031616,6.850098 -0.318848,17.531738 -8.843872,19.5625c-9.538818,1.415527 -18.90625,-2.787598 -28.5,-1.3125c-38.926025,0.25 -80.536377,14.720215 -103.5,47.40625c-13.394043,22.593262 -5.79895,54.437012 15.553467,69.296387c10.750488,9.42627 24.131226,16.041992 37.259155,21.766113c-40.10376,20.759277 -60.728882,74.154297 -41.687622,115.90625c13.108398,28.977539 40.080566,48.612305 68.281372,61.6875c8.734619,10.390137 -1.037598,25.800293 7.093628,36.5c12.728271,25.331543 41.160034,36.831543 66.739502,45.192383c49.351196,15.195313 103.115112,11.346191 152.04187,-3.536133c21.204102,-0.626953 41.326782,7.79248 62.399902,8.827637c116.377808,15.772461 236.95813,9.901855 349.197021,-25.698242c27.915039,-10.106445 56.881226,-23.194336 74.996704,-47.566895c6.391113,-11.312988 3.460693,-26.933594 -6.743652,-35.103516c-6.60498,-7.669434 -12.810059,-15.77002 -16.850098,-25.083984c24.406006,19.878418 62.783325,18.054199 86.093811,-2.9375c39.243347,-35.40625 38.011597,-105.604004 -2.46875,-139.71875c-16.66394,-14.26416 -41.491638,-20.094238 -62.187561,-11.46875c10.790527,-37.168945 -5.719238,-78.206543 -34.321777,-102.307129c-16.81665,-15.000977 -38.650146,-22.278809 -60.470459,-26.049316c-10.058594,-2.094727 -20.168945,-3.883301 -29.895264,-7.206055c13.067993,-2.189941 28.713379,-7.726074 32.5,-21.90625c4.66626,-14.599609 -5.677368,-29.525391 -18.199951,-36.28418c-36.924316,-25.507813 -83.65564,-30.408203 -127.548584,-30.109863c-25.507813,1.028809 -50.742188,5.955078 -74.970215,13.769043c-23.441895,-38.811035 -70.176025,-57.800781 -114.374878,-56.9375z"/>
    </g>
    <g fill="#ffffff" id="g8051" transform="matrix(0.275037, 0, 0, 0.275037, 522.202, -1305.65)">
     <path fill="url(#linearGradient8347)" id="path8053" d="m-89.148315,5193.956055c-62.156464,0.446289 -125.732574,27.65332 -161.90625,79.28125c-8.450745,11.935059 -14.09552,25.634277 -19.1875,39.34375c-53.030823,-13.527344 -114.456543,7.025391 -145.375,52.4375c-12.510162,18.217285 -17.727692,41.228027 -15.375,63.28125c-67.126923,-13.603516 -142.06311,0.325684 -193.84375,46.375c-24.653198,22.828125 -36.941284,61.791016 -22.006042,93.402344c18.18634,39.091309 58.093689,63.32666 98.662292,73.941406c4.270264,0.575195 10.62323,2.850098 10.3125,8c-14.881897,24.07959 -15.151123,56.070313 -1.34375,80.59375c15.828918,28.918945 45.662964,46.251953 74.5625,60c5.099243,2.340332 10.255829,4.558594 15.4375,6.71875c-11.57785,8.77832 -29.511871,11.266602 -35.09375,26.1875c5.031281,15.637207 22.537933,20.745117 35.628571,27.571289c39.54657,18.031738 83.748932,21.333496 124.715179,35.022461c22.226685,20.787109 48.187622,37.397949 76.9375,47.6875c53.608231,20.396973 111.739273,26.844238 168.874512,25.999512c58.480408,-2.012207 116.46283,-15.953125 169.531738,-40.155762c21.528198,-1.199219 40.697327,11.124512 61.87854,12.654297c112.725037,22.605957 234.972046,6.759766 333.80249,-53.263672c16.629395,-10.781738 32.07074,-23.493164 46.19397,-37.265625c33.743286,25.619629 84.399841,21.469727 116.878662,-4.119629c39.880859,-32.801758 56.626465,-88.751953 47.547729,-139.147461c-6.456177,-37.351074 -27.517212,-74.285156 -61.082642,-93.04541c-18.800964,-10.530273 -40.603516,-14.405273 -61.78125,-15.1875c-10.59552,-3.5625 -12.055969,-17.078613 -11.21875,-26.75c0.524109,-46.252441 -23.826538,-90.379395 -58.518188,-119.671387c-34.969788,-29.864746 -81.878113,-43.118652 -127.575562,-41.641113c-25.561035,1.022461 -50.837219,6.962402 -73.9375,17.78125c-6.977905,-62.017578 -50.342957,-120.505859 -111.0625,-138.53125c-33.667725,-9.959961 -71.231445,-4.446289 -101.15625,13.375c-26.380402,-55.595703 -84.776855,-90.496094 -144.708679,-98.641602c-11.850098,-1.626465 -23.827972,-2.437988 -35.791321,-2.233398z"/>
    </g>
    <g fill="url(#radialGradient8351)" id="g8100" transform="matrix(0.275037, 0, 0, 0.275037, 523.597, -1307.04)">
     <path fill="url(#linearGradient8349)" id="path8102" d="m-156.960815,6186.14502c-60.994003,0.699707 -123.821991,27.669922 -158.718811,78.939941c-6.342987,9.5 -10.95459,20.169922 -15.468689,30.679688c-63.690948,-24.75 -135.161316,-24.929688 -201.125488,-8.899902c-106.807007,-40.680176 -226.432983,-41.699707 -336.328979,-13.049805c-26.054077,7.689941 -50.554016,19.469727 -74.702026,31.609863c-20.367004,0.009766 -38.499023,-11.419922 -58.656982,-12.859863c-107.422974,-22.160156 -221.022095,-17.419922 -325.180054,17.439941c-22.116943,8.609863 -42.647949,20.969727 -62.783936,33.390137c-22.910034,1.879883 -45.580078,-4.260254 -68.5,-2.880371c-70.410034,-1.349609 -143.119995,7.410156 -206.369995,39.880371c-10.609985,6.399902 -22.680054,16.30957 -21.570068,29.909668c6.119995,18.439941 26.52002,25.189941 41.650024,34.580078c9.109985,5.049805 18.180054,10.160156 27.349976,15.100098c-46.319946,13.5 -97,17.080078 -138.150024,44.299805c-6.959961,2.140137 -13.059937,11.209961 -7.849976,17.830078c29.01001,24.72998 68,30.899902 103.830078,39.959961c107.929932,22.540039 219.059937,21.390137 328.574951,14.370117c9.997925,0.009766 20.81604,-1.75 30.281006,1.819824c12.590942,9.040039 18.348022,25.77002 33.07605,32.220215c41.237915,27.669922 91.584961,35.600098 139.771973,43.040039c50.311035,5.699707 101.092041,1.77002 151.276978,-2.790039c15.84198,6.910156 26.036987,22.350098 42.271973,28.739746c60.072998,33.950195 129.401978,45.180176 196.831055,55.44043c125.526978,15.399902 254.647949,8.47998 376.400269,-26.460449c40.593506,-12.529785 80.889709,-30.47998 110.809692,-61.469727c7.89801,-6.780273 19.299011,-6.790039 28.325012,-2.350098c24.051987,8.220215 49.276993,12.049805 74.288986,16.370117c97.577011,14.629883 199.988998,5 290.748978,-34.459961c26.682007,-13.189941 54.137024,-31.669922 64.949036,-60.560059c2.325989,-10.27002 0.672974,-24.010254 10.343994,-30.839844c12.356995,-7.220215 27.491028,-7.640137 39.75,-15.130371c48.161987,-20.959961 91.775024,-59.080078 108.125,-110.339844c15.054016,-51.120117 -6.609009,-108.950195 -47.593018,-141.439941c-52.984985,-46.870117 -125.651978,-66 -195.437988,-64.189941c-45.40799,1.72998 -89.414001,15.049805 -131.437988,31.319824c-16.882996,-3.060059 -27.042999,-19.580078 -43.062012,-25c-32.402008,-16.97998 -69.186981,-24.660156 -105.718994,-24.219727l0,0z"/>
    </g>
   </g>
  </g>
 </g>
</svg>